<svg id="_1" data-name="1" xmlns="http://www.w3.org/2000/svg" viewBox="0 0 512 512"><defs><style>.cls-1{fill:#3295d1}</style></defs><path class="cls-1" d="M373.33 512c-76.46 0-138.67-62.21-138.67-138.67s62.21-138.67 138.67-138.67S512 296.87 512 373.33 449.79 512 373.33 512zm0-256a117.33 117.33 0 10117.34 117.33A117.47 117.47 0 00373.33 256z"/><path class="cls-1" d="M352 426.67a10.78 10.78 0 01-7.55-3.11l-42.67-42.67a10.67 10.67 0 0115.08-15.08l34.6 34.6 67.16-76.76a10.67 10.67 0 0116.06 14L360 423a10.75 10.75 0 01-7.68 3.65H352zM202.67 448H53.33A53.39 53.39 0 010 394.67V117.33A53.39 53.39 0 0153.33 64H96a10.67 10.67 0 010 21.33H53.33a32 32 0 00-32 32v277.34a32 32 0 0032 32h149.34a10.67 10.67 0 110 21.33zM352 192a10.67 10.67 0 01-10.67-10.67v-64a32 32 0 00-32-32h-42.66a10.67 10.67 0 110-21.33h42.67a53.39 53.39 0 0153.33 53.33v64A10.67 10.67 0 01352 192z"/><path class="cls-1" d="M245.33 128h-128a32 32 0 01-32-32V53.33A10.67 10.67 0 0196 42.67h33.07a53.35 53.35 0 01104.53 0h33.07a10.67 10.67 0 0110.67 10.67V96a32 32 0 01-32.01 32zM106.67 64v32a10.68 10.68 0 0010.67 10.67h128A10.68 10.68 0 00256 96V64h-32a10.67 10.67 0 01-10.67-10.67 32 32 0 10-64 0A10.67 10.67 0 01138.67 64zM288 192H74.67a10.67 10.67 0 110-21.33H288a10.67 10.67 0 110 21.33zm-64 64H74.67a10.67 10.67 0 110-21.33H224a10.67 10.67 0 110 21.33zm-42.67 64H74.67a10.67 10.67 0 110-21.33h106.66a10.67 10.67 0 110 21.33z"/></svg>