<svg data-name="Layer 1" xmlns="http://www.w3.org/2000/svg" viewBox="0 0 512 512"><path d="M386.39 139.1a23.33 23.33 0 00-17.14-7.53h-11.94l1.42-21.79 1.76-27.06A74.89 74.89 0 00285.77 3h-59.55a74.89 74.89 0 00-74.72 79.72l2.65 40.58.54 8.27h-13a23.26 23.26 0 00-23.18 25.25l3.89 45.27A23.1 23.1 0 00137.69 222v42.18a10.2 10.2 0 1020.4 0v-40.8h2.74a95.93 95.93 0 00175.1 41.5 52.3 52.3 0 0019.5-5.86c29.47-15.76 33-55.29 33.13-57l3.88-45.22a23.32 23.32 0 00-6.05-17.7zM145.6 203a2.85 2.85 0 01-2.85-2.62l-3.88-45.27a2.86 2.86 0 012.85-3.11H156l3.33 51H145.6zm26.26-121.61a54.49 54.49 0 0154.37-58h59.55c1.32 0 2.63.06 3.93.15l-15.8 42.13c-2.55 4.24-25.73 39.11-100.07 46.06zm159.46 135.35a75.63 75.63 0 01-7.24 27.77q-13.13-1.44-29.89-9.68a25.54 25.54 0 10-12.19 16.7 132.17 132.17 0 0029.55 11.4 75.5 75.5 0 01-130.91-46.19l-5.52-84.68c57.45-5.27 88.78-26.27 104.22-41.34q6.19 7.1 17.64 13c8.23 4.25 21.93 8.72 40.8 13.32zm-57 12.74a5.1 5.1 0 11-5.1-5.1 5.11 5.11 0 015.14 5.1zm65.82-148.09l-1 15C320.27 91.64 311 88 306.38 85.62c-11.12-5.75-13.63-10.5-13.7-12v-.06l16.8-44.79a54.5 54.5 0 0116 11.83 53.94 53.94 0 0114.66 40.79zm7.55 158.52a96.38 96.38 0 003.48-16.55h10.46c-3.07 6.3-7.52 12.5-13.94 16.56zm20.54-39.57a2.85 2.85 0 01-2.85 2.62h-12.72L356 152h13.27a2.86 2.86 0 012.85 3.11zM511.84 497L502 442.58a151.41 151.41 0 00-120.9-121.77 152.17 152.17 0 00-28.1-2.63h-29.7a10.2 10.2 0 00-7.21 3L256 381.27l-60.1-60.1a10.2 10.2 0 00-7.21-3H159a152.2 152.2 0 00-28.09 2.62A151.41 151.41 0 0010 442.58L.16 497a10.2 10.2 0 0010 12H501.8a10.2 10.2 0 0010-12zm-248.63-94.09l64.33-64.33H353q2 0 4 .06l-101 101-14.75-14.75zM159 338.58h25.48l57.12 57.12-14.75 14.75L155 338.64q2-.06 4-.06zM22.41 488.64l7.68-42.42a131.74 131.74 0 0199.38-104.28l119.32 119.32a10.38 10.38 0 00.77.7 10.2 10.2 0 0012.87 0q.4-.33.77-.7l119.33-119.32a131.75 131.75 0 0199.37 104.28l7.68 42.42H22.41zm125.48-204.08a10.2 10.2 0 00-10.2 10.2v4.08a10.2 10.2 0 1020.4 0v-4.08a10.2 10.2 0 00-10.2-10.2z" fill="#3295d1"/></svg>