<svg id="Layer_1" data-name="Layer 1" xmlns="http://www.w3.org/2000/svg" viewBox="0 0 512 512"><defs><style>.cls-1{fill:#3295d1}</style></defs><path class="cls-1" d="M392.33 226.07a29.43 29.43 0 00-29.39-29.39h-54c13.13-14.75 21.7-31.55 23.36-46.62a32.41 32.41 0 00-7.8-25.07 28.18 28.18 0 00-21-9.65h-.28a29.3 29.3 0 00-29.38 29.15c-.29 1.71-3.3 7.61-10.66 14.61a83.5 83.5 0 01-31.82 18.61 39 39 0 00-16.38 10.71 106 106 0 01-11 10.18 16.45 16.45 0 00-7.73-1.92h-51.41a16.59 16.59 0 00-16.57 16.57v136.82a16.59 16.59 0 0016.57 16.57h51.31a16.58 16.58 0 0014.49-8.55h130.91a25.11 25.11 0 0021.63-37.88 25.1 25.1 0 008.55-34.21 25.1 25.1 0 007.67-35.59 29.39 29.39 0 0012.93-24.34zm-29.39 13.36h-4.28a8 8 0 000 16 9.09 9.09 0 010 18.17h-8.55a8 8 0 100 16 9.09 9.09 0 010 18.17h-8.55a8 8 0 000 16 9.09 9.09 0 010 18.17H212.71v-77.39a8 8 0 00-16 0v85.51a.53.53 0 01-.53.53h-51.34a.53.53 0 01-.53-.53V213.24a.53.53 0 01.53-.53h51.31a.53.53 0 01.53.53v17.1a8 8 0 0016 0v-17.1c0-.39 0-.77-.06-1.15a121.72 121.72 0 0014-12.7 23.17 23.17 0 019.64-6.44 99 99 0 0038.9-23.19c9.19-9 14.67-18.42 14.67-25.15a13.12 13.12 0 013.91-9.38 13.44 13.44 0 019.58-3.87 12.22 12.22 0 019.18 4.26 16.59 16.59 0 013.86 12.67c-1.75 15.93-14.49 35.62-32.45 50.16a8 8 0 005 14.25h74a13.36 13.36 0 010 26.72z"/><path class="cls-1" d="M170.49 316.31a8.06 8.06 0 108.06 8.06 8.09 8.09 0 00-8.06-8.06z"/><path class="cls-1" d="M497.71 256l13.77-36.44a8 8 0 00-1.24-7.85l-24.36-30.4 1.84-38.92a8 8 0 00-3.61-7.08l-32.56-21.39-10.28-37.57a8 8 0 00-5.62-5.62l-37.58-10.28-21.38-32.56a8 8 0 00-7.08-3.61l-38.92 1.84-30.4-24.36a8 8 0 00-7.85-1.24L256 14.29 219.56.52a8 8 0 00-7.85 1.24l-30.4 24.36-38.92-1.84a8 8 0 00-7.08 3.61l-21.38 32.56-37.58 10.28a8 8 0 00-5.62 5.62l-10.28 37.58-32.56 21.38a8 8 0 00-3.61 7.08l1.84 38.92-24.36 30.4a8 8 0 00-1.24 7.85L14.29 256 .52 292.44a8 8 0 001.24 7.85l24.36 30.4-1.84 38.92a8 8 0 003.61 7.08l32.56 21.39 10.28 37.58a8 8 0 005.62 5.62l37.58 10.28 21.39 32.56a8 8 0 007.08 3.61l38.92-1.84 30.4 24.36a8 8 0 007.85 1.24L256 497.71l36.44 13.77a8 8 0 007.85-1.24l30.4-24.36 38.92 1.84a8 8 0 007.08-3.61l21.39-32.56 37.58-10.28a8 8 0 005.62-5.62l10.28-37.58 32.56-21.39a8 8 0 003.61-7.08l-1.84-38.92 24.36-30.4a8 8 0 001.24-7.85zm-16.07 2.83l13.23 35-23.4 29.17a8 8 0 00-1.75 5.39l1.76 37.37-31.27 20.54a8 8 0 00-3.33 4.59L427 427l-36.09 9.87a8 8 0 00-4.59 3.33l-20.54 31.27-37.37-1.76a8 8 0 00-5.39 1.75l-29.2 23.39-35-13.23a8 8 0 00-5.67 0l-35 13.23L189 471.47a8 8 0 00-5.39-1.75l-37.37 1.76-20.54-31.27a8 8 0 00-4.59-3.33L85 427l-9.87-36.09a8 8 0 00-3.33-4.59L40.51 365.8l1.76-37.37a8 8 0 00-1.74-5.43l-23.39-29.2 13.23-35a8 8 0 000-5.67l-13.23-35L40.53 189a8 8 0 001.75-5.39l-1.76-37.37 31.27-20.54a8 8 0 003.33-4.59L85 85l36.09-9.87a8 8 0 004.59-3.33l20.52-31.28 37.37 1.76a8 8 0 005.43-1.75l29.2-23.39 35 13.23a8 8 0 005.67 0l35-13.23L323 40.53a8 8 0 005.39 1.75l37.37-1.76 20.54 31.27a8 8 0 004.59 3.33L427 85l9.87 36.09a8 8 0 003.33 4.59l31.27 20.54-1.76 37.37a8 8 0 001.75 5.39l23.39 29.2-13.23 35a8 8 0 00.02 5.65z"/><path class="cls-1" d="M406.63 117.57A206.575 206.575 0 00394.06 105a8 8 0 10-10.84 11.81c2 1.84 4 3.75 5.92 5.68s3.84 3.92 5.68 5.93a8 8 0 0011.81-10.84zm-41.04-34.44A204.72 204.72 0 0099 387.52a8 8 0 0012.27-10.32A188.69 188.69 0 01357 96.65a8 8 0 008.62-13.52zM428.51 146a8 8 0 10-13.51 8.66A188.69 188.69 0 01134.44 400.4a8 8 0 10-10.32 12.27 203.9 203.9 0 00131.57 47.92q4.18 0 8.39-.17A204.74 204.74 0 00428.51 146z"/></svg>