<svg id="Capa_1" data-name="Capa 1" xmlns="http://www.w3.org/2000/svg" viewBox="0 0 475.9 475.9"><defs><style>.cls-1{fill:#3295d1}</style></defs><path class="cls-1" d="M13.73 51.17a2.76 2.76 0 00.55.88l.18-.19 121.86 116.55V475.9H464V18.67H136.32v53.4L61.85.86l-.37.38c-2.47-.9-16.39-6-35.78 14.23s-13 33.27-12 35.7zM353.35 336.7h70v98.56h-70zm0-184.93h70v176.8h-70zm0-92.46h11.18v84.33h-11.18zm37.53 0h11.18v84.33h-11.18zm32.46 84.33h-13.15V59.31h13.15zm-40.59 0h-10.1V59.31h10.1zm-37.53 0h-10.16V59.31h10.16zm-29.46-84.33h11.18v84.33h-11.18zm-138.76 0h130.63v84.33H265v8.13h80.27v283.49h-53.9v-18.85h-16.25v18.85H177v-151.4h12.8v-16.25H177v-60.32l7.34 7c1.8-9 8.35-20.05 16.64-29.51 10-11.44 21.57-19.62 30.38-21.86l-54.36-52V59.31z"/><path class="cls-1" d="M204.46 187.19c-11.45 13.32-15.82 24.77-16 30.54-.07 1.76 3.88 4 4.58 4l9.31 1.11 6.93.83 31.65 3.8v-.06a10.91 10.91 0 013-7.56c1-1.18 3.65-3.8 6.94-4l-9-30.81-2-6.66-2.46-8.38c.15-1.83-2-4.18-2.54-4.18-5.87.04-18.51 7.52-30.41 21.37zm26.13-11.56l1.46 5 2 6.66 7.06 24.09a21.87 21.87 0 00-3.37 3.2 23 23 0 00-2.73 4l-24.72-3-6.93-.83-5.92-.71c1.63-5 5.69-12.79 13.23-21.56 7.94-9.29 15.33-14.48 19.91-16.85zm15.64 51.95c0 .06 0 .15.09.2l7.33 6.14a7.76 7.76 0 003.85 1 3.62 3.62 0 002.79-1c1.54-1.78-.26-5.79-1-6.45l-7.33-6.14a1 1 0 00-.67-.21.92.92 0 00-.15 0 6 6 0 00-3.4 2.22c-1.5 1.66-2.07 3.47-1.51 4.24zm28.89 65.99h16.25v-25.96h-27.54v16.25h11.29v9.71zm-60.06-25.96h23.48v16.26h-23.48zm60.06 51.26h16.26v23.48h-16.26zm0 48.77h16.26v23.48h-16.26z"/></svg>