<svg data-name="Capa 1" xmlns="http://www.w3.org/2000/svg" viewBox="0 0 256 256"><path d="M89.46 123.65a37.74 37.74 0 10-59 .29C11.89 136.52 0 160.27 0 186.26a7.17 7.17 0 007.17 7.17h105.94a7.17 7.17 0 007.17-7.17c.01-26.26-12.05-50.11-30.82-62.61zM14.7 179.09c2.17-21.43 13.92-39.84 30.6-47.05a7.18 7.18 0 001.23-12.48 23.41 23.41 0 1126.76-.13 7.17 7.17 0 001.36 12.46c16.88 7.12 28.77 25.59 30.94 47.21H14.7zm162.01-75.8a7.16 7.16 0 00-10.14 0L152 117.86l-14.57-14.57a7.17 7.17 0 10-10.14 10.14L141.87 128l-14.57 14.56a7.17 7.17 0 0010.14 10.14L152 138.13l14.57 14.57a7.17 7.17 0 0010.14-10.14L162.15 128l14.56-14.57a7.17 7.17 0 000-10.14zm65.89 22.9a15.77 15.77 0 006.06-4.55 19.35 19.35 0 004.61-13.1q0-11-7.72-17.5t-20.34-6.52a34.79 34.79 0 00-11.45 1.64 23.3 23.3 0 00-8.06 4.73 28 28 0 00-6.66 9.53 43.09 43.09 0 00-2.24 12.44h16.14q-.13-6.49 2.75-10.38t9-3.88q5.34 0 8.26 3.15a11.53 11.53 0 012.93 8.19q0 7.76-5.74 10.31-3.33 1.52-11.73 1.64v12.38c5.72 0 9.92.55 12.58 1.64q7 2.91 7 11.59 0 6.54-3.78 10a12.64 12.64 0 01-8.87 3.49q-8.29 0-11.44-6.37a19.84 19.84 0 01-1.69-8.73h-17q.42 10.49 4.24 17 7.28 12.2 25.94 12.19 15.16 0 22.88-8.46A28.22 28.22 0 00256 147q0-10.62-6.62-16.75-4.38-4.06-6.78-4.06z" fill="#3295d1"/></svg>