<svg id="Слой_1" data-name="Слой 1" xmlns="http://www.w3.org/2000/svg" viewBox="0 0 297 297"><defs><style>.cls-1{fill:#3295d1}</style></defs><path class="cls-1" d="M187.85 32.19a110.07 110.07 0 100 155.66 110.2 110.2 0 000-155.66zM110 205.92a95.9 95.9 0 1167.84-28.06A95.64 95.64 0 01110 205.92zm184.85 56.72L212.22 180l-.13-.11a124 124 0 01-32.2 32.2l.11.13 82.64 82.64a7.33 7.33 0 0010.37 0L294.85 273a7.33 7.33 0 000-10.37z"/><path class="cls-1" d="M140.67 136.26l-5.83-1.79-21.47 11.68a7 7 0 01-6.69 0L85.2 134.47l-5.83 1.79a17.42 17.42 0 00-11.85 16.52v28.1a82.85 82.85 0 0085 .17v-28.27a17.42 17.42 0 00-11.85-16.52zM110 62.51a17.75 17.75 0 1017.75 17.75A17.77 17.77 0 00110 62.51z"/><path class="cls-1" d="M110.17 27a82.81 82.81 0 00-56.66 143.27v-17.48A31.4 31.4 0 0175 123l.16-.05 8.73-2.68a7 7 0 015.4.54L110 132l20.71-11.26a7 7 0 015.4-.54l8.73 2.68.16.05a31.4 31.4 0 0121.5 29.83v17.77A82.82 82.82 0 00110.17 27zm-.17 85a31.75 31.75 0 1131.75-31.75A31.79 31.79 0 01110 112z"/></svg>