<svg id="Слой_1" data-name="Слой 1" xmlns="http://www.w3.org/2000/svg" viewBox="0 0 429 429"><defs><style>.cls-1{fill:#3295d1}</style></defs><path class="cls-1" d="M127.07 186.12v.27c-1.06 18.51 9.31 35.86 26.43 44.17l.18.09a31.13 31.13 0 0114.1 13.56l.07.13c8.62 16.42 26.46 26.37 45.47 25.37h.29a33.11 33.11 0 0119.57 5.09 49.63 49.63 0 0052.63 0 33.11 33.11 0 0119.57-5.09h.29c19 1 36.84-9 45.48-25.4v-.09a31.19 31.19 0 0114.14-13.59l.14-.07c17.11-8.32 27.49-25.66 26.43-44.18v-.26a29.63 29.63 0 015.14-18.35 45.56 45.56 0 000-51.51 29.62 29.62 0 01-5.16-18.35v-.27c1.06-18.52-9.31-35.86-26.44-44.18l-.16-.08a31.1 31.1 0 01-14.08-13.51l-.09-.18c-8.63-16.42-26.48-26.37-45.47-25.37h-.29a33.09 33.09 0 01-19.57-5.09 49.63 49.63 0 00-52.63 0 33.14 33.14 0 01-19.57 5.09h-.29c-19-1-36.84 9-45.46 25.37l-.07.12a31.15 31.15 0 01-14.11 13.58l-.16.08c-17.08 8.3-27.45 25.65-26.39 44.16v.26a29.61 29.61 0 01-5.16 18.36 45.55 45.55 0 000 51.52 29.6 29.6 0 015.17 18.35zm8-60.8A45.67 45.67 0 00143 97v-.27a30.37 30.37 0 0117.44-28.88l.14-.07a47 47 0 0021.3-20.51l.08-.15c5.73-10.91 17.73-17.53 30.47-16.85h.28a48.93 48.93 0 0028.95-7.52 33.57 33.57 0 0135.61 0 49 49 0 0028.94 7.53h.28c12.81-.68 24.75 5.92 30.51 16.81l.11.2a47 47 0 0021.28 20.48l.13.07c11.29 5.49 18.15 16.83 17.46 28.89v.28a45.66 45.66 0 008 28.33 29.5 29.5 0 010 33.37 45.71 45.71 0 00-8 28.33v.27c.69 12.06-6.17 23.4-17.46 28.9l-.12.05A47.08 47.08 0 00337 236.8l-.06.12a32.37 32.37 0 01-30.48 16.85h-.28a49 49 0 00-29 7.53 33.57 33.57 0 01-35.6 0 49 49 0 00-26.24-7.6q-1.35 0-2.71.07h-.28A32.35 32.35 0 01182 236.89l-.08-.15a47 47 0 00-21.27-20.47l-.15-.07c-11.3-5.49-18.15-16.83-17.46-28.89v-.28a45.7 45.7 0 00-8-28.33 29.5 29.5 0 010-33.37z"/><path class="cls-1" d="M207.93 224.59a8 8 0 0011-2.55l94.62-151.58A8 8 0 10300 62l-94.61 151.58a8 8 0 002.54 11.01zm8.48-82.18c19.45 0 35.28-18 35.28-40.22S235.86 62 216.41 62s-35.27 18-35.27 40.22 15.86 40.19 35.27 40.19zm0-64.47c10.64 0 19.3 10.88 19.3 24.25s-8.66 24.25-19.3 24.25-19.3-10.88-19.3-24.25 8.66-24.25 19.3-24.25zm50.84 103.91c0 22.18 15.82 40.22 35.27 40.22s35.28-18 35.28-40.22-15.8-40.22-35.27-40.22-35.28 18.04-35.28 40.22zm54.57 0c0 13.37-8.66 24.25-19.3 24.25s-19.3-10.88-19.3-24.25 8.66-24.25 19.3-24.25 19.31 10.88 19.31 24.25zM428 314.48a40.34 40.34 0 00-53.28-16.24l-62.57 29.56a51 51 0 00-43.48-26.8l-57.76-1.59a61.06 61.06 0 01-26.25-6.78l-5.88-3a103.67 103.67 0 00-96 .1l.37-13.31a8 8 0 00-7.76-8.21L12 266.42a8 8 0 00-8.2 7.76l-3.8 139a8 8 0 007.76 8.21l63.34 1.74h.22a8 8 0 008-7.77l.18-6.65 16.45-8.81a28.23 28.23 0 0121.05-2.3l98.25 27.58.52.13a105.19 105.19 0 0021.6 2.23 106.57 106.57 0 0044.52-9.71 7.83 7.83 0 001-.54l142.46-92.15a8 8 0 002.65-10.66zM16.19 405.63l3.39-123 47.37 1.3-3.39 123zm258.51-2.09a90.53 90.53 0 01-55.38 6.18l-98-27.5a44.15 44.15 0 00-32.92 3.6l-8.4 4.5 2.25-81.79a87.79 87.79 0 0189.19-4.76l5.88 3a77.1 77.1 0 0033.16 8.56l57.76 1.67a35 35 0 0133.29 27.91l-86-2.37a8 8 0 00-.44 16L310 361.1h.23a8 8 0 008-7.77 51 51 0 00-.77-10.36l64.16-30.32.19-.09a24.4 24.4 0 0127.6 3.86z"/></svg>