<svg xmlns="http://www.w3.org/2000/svg" xmlns:xlink="http://www.w3.org/1999/xlink" width="512" height="512"><linearGradient id="a" gradientUnits="userSpaceOnUse" x1="256" x2="256" y1="26" y2="474.071"><stop offset="0" stop-color="#00efd1"/><stop offset="1" stop-color="#00acea"/></linearGradient><linearGradient id="b" x1="256" x2="256" xlink:href="#a" y1="26" y2="474.071"/><path d="M256 62.265C149.174 62.265 62.265 149.174 62.265 256S149.174 449.735 256 449.735 449.735 362.826 449.735 256 362.826 62.265 256 62.265zm0 367.47C160.2 429.735 82.265 351.8 82.265 256S160.2 82.265 256 82.265 429.735 160.2 429.735 256 351.8 429.735 256 429.735z" fill="url(#a)"/><path d="M335.054 169.024a10 10 0 00-14.143 0l-93.791 93.792-36.036-35.991a10 10 0 00-14.138 0L147.5 256.279a10 10 0 000 14.142l72.556 72.556a10 10 0 0014.143 0L364.5 212.614a10 10 0 000-14.14zM227.123 321.762L168.71 263.35l15.311-15.312 36.037 35.991a10 10 0 0014.137 0l93.787-93.787 15.309 15.309z" fill="url(#b)"/></svg>